<svg width="301" height="301" viewBox="0 0 301 301" fill="none" xmlns="http://www.w3.org/2000/svg">
<g filter="url(#filter0_d_97_49)">
<circle cx="150.474" cy="138.474" r="100" transform="rotate(15 150.474 138.474)" fill="white"/>
</g>
<g clip-path="url(#clip0_97_49)">
<path d="M222.881 125.583L225.666 125.251L225.074 122.42L222.289 122.752L222.881 125.583ZM226.72 130.289L226.178 127.698L223.393 128.03L223.985 130.86L221.634 131.352L221.006 128.353L216.2 128.958L215.688 126.511L220.495 125.906L219.903 123.075L215.096 123.679L214.579 121.208L219.386 120.604L218.879 118.181L221.23 117.689L221.772 120.28L224.557 119.948L223.966 117.118L226.317 116.626L226.944 119.625L231.751 119.02L232.267 121.491L227.461 122.095L228.053 124.927L232.859 124.322L233.371 126.77L228.565 127.374L229.071 129.797L226.72 130.289Z" fill="#78C887"/>
<path d="M94.424 186.029L92.1701 187.698L94.0885 189.863L96.3422 188.194L94.424 186.029ZM88.7565 183.846L90.5121 185.828L92.7658 184.158L90.8477 181.993L92.6455 180.4L94.6775 182.693L98.5514 179.784L100.21 181.655L96.3357 184.564L98.2537 186.729L102.128 183.82L103.802 185.709L99.9283 188.618L101.57 190.471L99.7722 192.064L98.0165 190.083L95.7628 191.753L97.681 193.917L95.8833 195.51L93.8512 193.217L89.9771 196.126L88.3029 194.237L92.1769 191.328L90.2587 189.163L86.3846 192.072L84.7263 190.201L88.6005 187.292L86.9586 185.439L88.7565 183.846Z" fill="#78C887"/>
<path fill-rule="evenodd" clip-rule="evenodd" d="M147.356 115.524L154.705 122.991L164.803 120.198L161.621 132.073L173.399 135.229L166.029 142.603L168.725 152.675L156.946 149.519L153.799 161.265L146.416 153.927L136.353 156.591L139.5 144.844L127.691 141.68L135.093 134.314L132.366 124.234L144.175 127.398L147.356 115.524Z" fill="#78C887"/>
<path d="M169.085 201.988L171.82 210.608L168.585 211.635L169.635 214.945L179.935 211.676L178.885 208.366L175.625 209.401L172.889 200.78L169.085 201.988ZM177.56 199.469L184.06 210.165L187.471 208.093L180.97 197.397L177.56 199.469ZM189.363 198.482C188.721 198.872 188.093 198.738 187.784 198.229C187.474 197.72 187.644 197.101 188.286 196.711L191.209 194.934L192.286 196.705L189.363 198.482ZM199.451 200.811L192.951 190.116L186.019 194.328C183.539 195.835 183.145 198.38 184.329 200.328C185.527 202.299 187.843 203.166 190.434 201.591L193.955 199.452L196.041 202.884L199.451 200.811ZM193.35 189.275L201.598 190.657L202.376 197.949L205.78 194.537L204.93 188.308L208.471 191.84L211.289 189.015L202.427 180.175L199.609 183L201.737 185.123L201.904 186.974L196.827 185.789L193.35 189.275ZM210.528 166.533C208.644 169.693 209.713 172.202 212.964 174.744L215.391 176.643L213.719 179.448L205.951 174.817L203.908 178.244L214.658 184.654L220.139 175.461L215.4 171.67C213.249 169.965 212.855 169.006 213.333 168.205L210.528 166.533ZM211.623 165.459L223.633 168.985L224.757 165.156L212.747 161.63L211.623 165.459ZM219.681 156.779C219.47 157.5 218.915 157.823 218.343 157.655C217.772 157.487 217.48 156.915 217.692 156.195L218.655 152.913L220.645 153.496L219.681 156.779ZM228.706 151.704L216.697 148.178L214.412 155.961C213.594 158.746 215.016 160.892 217.205 161.534C219.418 162.184 221.713 161.265 222.567 158.355L223.728 154.402L227.582 155.533L228.706 151.704ZM229.517 133.661L224.778 133.499C222.136 133.409 220.46 134.648 220.343 138.066C220.287 139.724 220.656 141.06 221.096 141.852L216.719 141.703L216.583 145.665L229.093 146.093L229.228 142.13L224.256 141.96C223.987 141.458 223.777 140.777 223.815 139.663C223.864 138.239 224.408 137.479 225.937 137.531L229.381 137.649L229.517 133.661Z" fill="#78C887"/>
<path d="M207.176 103.905L215.461 104.696L209.411 107.999L211.323 111.502L222.309 105.504L220.384 101.978L212.494 101.208L218.248 98.0661L216.336 94.5638L205.35 100.561L207.176 103.905ZM204.987 99.7978L206.762 91.6256L214.083 91.1955L210.837 87.6324L204.574 88.1848L208.271 84.8163L205.583 81.8665L196.331 90.2965L199.019 93.2463L201.241 91.2215L203.097 91.1433L201.671 96.1582L204.987 99.7978ZM191.192 86.4495C193.358 88.0534 195.437 88.0772 196.688 87.6498L196.055 84.15C195.243 84.4193 194.289 84.3578 193.435 83.7254C192.103 82.7384 191.776 81.0455 192.902 79.5254C194.027 78.0047 195.726 77.8442 197.059 78.8313C197.913 79.4633 198.281 80.3165 198.245 81.1925L201.762 80.7979C201.821 79.455 201.177 77.4945 199.011 75.8906C195.866 73.5623 191.939 73.9436 189.611 77.0887C187.267 80.2544 188.047 84.1213 191.192 86.4495ZM182.405 80.314L186.651 72.3278L189.649 73.9217L191.278 70.8552L181.736 65.7828L180.107 68.8488L183.127 70.4548L178.882 78.4407L182.405 80.314ZM169.714 71.6557C168.893 71.4136 168.039 70.648 167.75 69.887L168.828 66.2335C169.492 65.727 170.618 65.5728 171.438 65.8149C172.929 66.2551 173.742 67.7114 173.214 69.5008C172.678 71.315 171.205 72.0959 169.714 71.6557ZM169.983 75.4102C172.99 76.2981 175.913 74.7288 177.116 70.6528C178.312 66.6018 176.711 63.6971 173.704 62.8092C172.336 62.4058 170.932 62.5855 169.65 63.4501L170.061 62.058L166.234 60.9279L161.34 77.5057L165.167 78.6357L166.935 72.6458C167.577 74.1325 168.641 75.0139 169.983 75.4102ZM148.968 76.6795C149.37 76.844 150.293 77.0005 150.654 77.0314C153.034 77.1822 154.97 76.7488 156.202 74.2011L163.046 60.4283L158.837 60.0694L155.323 67.7283L153.182 59.5869L149 59.2305L152.878 72.3054L152.537 72.9523C152.286 73.4512 151.703 73.5834 150.799 73.5062C150.489 73.4799 150.109 73.3693 149.838 73.1902L148.968 76.6795ZM147.204 71.8237L145.175 59.4726L139.984 60.3255L138.497 67.4239L134.818 61.174L129.627 62.0269L131.656 74.3779L135.594 73.731L134.38 66.3406L138.433 73.2646L140.453 72.9326L142.077 65.0763L143.291 72.4667L147.204 71.8237ZM118.912 70.0706L121.915 68.7863L124.106 73.9089L119.674 75.8046C120.005 74.9305 120.009 73.8858 119.653 72.6572L118.912 70.0706ZM118.029 83.7523L121.698 82.1827L120.445 79.252L126.735 76.5613L127.988 79.4916L131.657 77.922L129.038 71.7987L127.775 72.3388L124.218 64.0237L114.378 68.2337L115.98 74.0874C116.717 76.7315 116.298 77.3339 115.471 77.7721L118.029 83.7523ZM109.833 92.2521C110.242 92.1068 111.036 91.6097 111.326 91.3923C113.203 89.9213 114.36 88.31 113.584 85.5889L109.528 70.7529L106.148 73.2854L108.621 81.3413L101.606 76.6883L98.246 79.205L109.841 86.3847L110.017 87.0947C110.162 87.6341 109.814 88.1211 109.088 88.6647C108.839 88.8515 108.482 89.022 108.16 89.0687L109.833 92.2521ZM98.8394 92.0544C97.6751 93.3421 96.0133 93.1322 94.7638 92.0026C93.5335 90.8904 93.1579 89.258 94.3224 87.9698C95.5041 86.663 97.1832 86.8537 98.4135 87.9659C99.6631 89.0955 100.021 90.7476 98.8394 92.0544ZM101.454 94.418C104.339 91.2274 103.774 87.2928 101.16 84.9288C98.5455 82.5652 94.5934 82.4157 91.7082 85.6063C88.8579 88.7586 89.3862 92.6949 92.0003 95.0589C94.6144 97.4225 98.6032 97.5702 101.454 94.418ZM95.6756 100.546L84.6235 94.6708L78.7727 105.677L89.8248 111.553L91.6981 108.028L83.7121 103.783L85.8167 99.8246L93.8025 104.07L95.6756 100.546ZM84.0131 118.612C83.5214 120.277 81.9326 120.808 80.3172 120.331C78.7266 119.861 77.6807 118.552 78.1721 116.887C78.6714 115.197 80.2675 114.641 81.858 115.111C83.4734 115.588 84.5119 116.922 84.0131 118.612ZM87.3931 119.609C88.6111 115.484 86.3974 112.182 83.0174 111.184C79.6371 110.187 76.0102 111.763 74.792 115.89C73.5887 119.966 75.7703 123.284 79.1505 124.282C82.5306 125.28 86.1898 123.685 87.3931 119.609ZM84.8143 129.985L75.8031 129.216L76.0916 125.833L72.6313 125.539L71.7132 136.306L75.1732 136.601L75.464 133.192L84.4753 133.961L84.8143 129.985ZM84.7845 142.732C84.611 140.042 83.2871 138.44 82.1525 137.76L79.8884 140.503C80.6183 140.949 81.1873 141.718 81.2557 142.778C81.3624 144.433 80.2806 145.775 78.3928 145.897C76.5049 146.019 75.2854 144.825 75.1785 143.17C75.1101 142.11 75.5238 141.278 76.2162 140.74L73.6445 138.309C72.5806 139.131 71.4997 140.888 71.6732 143.578C71.9252 147.483 74.7515 150.235 78.6565 149.983C82.5873 149.729 85.0365 146.637 84.7845 142.732ZM87.7599 159.421L79.7763 157.068L86.3446 154.976L85.1336 151.174L73.207 154.972L74.4258 158.799L82.0256 161.057L75.7783 163.046L76.9893 166.848L88.9157 163.051L87.7599 159.421ZM84.7886 182.218L88.9508 179.945C91.271 178.678 92.0831 176.759 90.4439 173.756C89.649 172.301 88.652 171.339 87.8698 170.881L91.7139 168.782L89.8139 165.302L78.8279 171.3L80.7279 174.78L85.095 172.396C85.5812 172.691 86.1088 173.171 86.6425 174.149C87.3257 175.4 87.2433 176.33 85.9015 177.063L82.8762 178.715L84.7886 182.218Z" fill="#78C887"/>
<path d="M197.068 112.564C197.939 112.796 198.693 113.249 199.29 113.857C199.903 114.479 200.351 115.266 200.593 116.146L206.621 138.433C207.069 140.104 207.066 141.82 206.637 143.419C206.214 144.998 205.376 146.464 204.147 147.664C200.157 151.559 196.786 154.859 192.832 158.79L195.561 161.52C195.765 161.691 195.916 161.917 195.997 162.169C196.076 162.415 196.088 162.687 196.016 162.957C195.951 163.199 195.822 163.42 195.646 163.597C195.448 163.794 195.205 163.921 194.951 163.976C194.69 164.033 194.417 164.014 194.166 163.922L182.897 160.893L176.45 184.966C176.217 185.836 175.765 186.59 175.157 187.188C174.534 187.801 173.748 188.248 172.867 188.491L150.582 194.519C148.91 194.967 147.194 194.964 145.595 194.535C144.169 194.153 142.835 193.432 141.706 192.391L142.496 189.21L143.58 190.311C144.024 190.762 144.239 190.869 144.723 191.156C145.248 191.468 145.789 191.689 146.327 191.837C146.901 191.994 147.485 192.066 148.063 192.062C148.672 192.059 149.277 191.972 149.862 191.815L168.984 186.686L148.303 165.843L149.094 162.656L155.955 169.578L159.94 154.705L175.171 158.786C175.046 158.695 174.934 158.583 174.844 158.455C174.754 158.326 174.684 158.181 174.64 158.023L169.981 140.681L167.683 142.981L170.816 154.692L157.941 151.242L154.53 163.973L147.652 157.137C147.224 158.838 146.657 161.043 146.096 163.228C145.432 165.814 144.775 168.371 144.362 170.028C144.965 169.718 145.383 169.495 145.871 169.234L146.313 168.998C147.075 168.592 147.738 168.645 148.205 168.947C148.417 169.084 148.587 169.272 148.708 169.492C148.827 169.71 148.897 169.96 148.909 170.223C148.94 170.872 148.617 171.6 147.808 172.111C146.23 173.169 145.176 173.883 143.693 174.889L143.014 175.351C142.625 176.954 142.224 178.598 141.818 180.258C140.544 185.467 139.23 190.841 138.103 195.919C137.998 196.393 137.913 196.823 137.857 197.222C137.803 197.606 137.776 197.958 137.785 198.289C137.846 198.452 137.914 198.601 137.989 198.738C138.5 199.669 139.329 200.038 140.182 200.118C141.051 200.199 141.948 199.985 142.567 199.757C142.81 199.668 143.009 199.578 143.146 199.502C143.834 199.125 144.325 198.997 144.644 199.033C144.835 199.054 144.973 199.134 145.061 199.255C145.146 199.373 145.179 199.526 145.164 199.7C145.135 200.04 144.916 200.482 144.555 200.898C144.347 201.137 143.383 202.043 142 202.599C141.292 202.884 140.472 203.079 139.586 203.048L139.68 203.148C139.783 203.254 139.891 203.353 140.002 203.443C140.974 204.24 142.623 204.577 144.307 204.374C145.844 204.188 147.405 203.552 148.508 202.404C149.095 201.793 149.62 201.563 150.004 201.602C150.199 201.622 150.358 201.708 150.474 201.848C150.585 201.981 150.654 202.162 150.673 202.379C150.721 202.936 150.432 203.758 149.662 204.616C150.199 204.857 150.699 205.149 151.152 205.486C151.645 205.854 152.082 206.277 152.448 206.749C152.964 207.414 153.183 207.891 153.202 208.194C153.213 208.362 153.166 208.489 153.076 208.576C152.987 208.661 152.861 208.701 152.71 208.696C152.422 208.687 152.013 208.507 151.601 208.183C148.978 206.12 146.747 206.83 144.553 207.529C144.286 207.614 144.018 207.699 143.736 207.784C143.474 207.862 143.215 207.922 142.96 207.965C142.805 207.991 142.651 208.01 142.499 208.024C143.237 208.696 144.072 209.287 144.967 209.739C145.879 210.2 146.852 210.519 147.85 210.635C149.024 210.772 149.779 211.036 150.12 211.326C150.29 211.47 150.371 211.627 150.363 211.786C150.356 211.944 150.262 212.094 150.082 212.223C149.714 212.488 148.935 212.694 147.762 212.738C147.103 212.762 146.428 212.722 145.75 212.623C145.112 212.529 144.47 212.382 143.835 212.186C143.727 212.957 143.846 213.78 144.222 214.583C144.594 215.377 145.217 216.152 146.12 216.841C146.787 217.348 147.133 217.811 147.219 218.161C147.263 218.341 147.242 218.497 147.165 218.622C147.088 218.747 146.957 218.835 146.779 218.879C146.426 218.967 145.859 218.875 145.15 218.538C143.641 217.82 142.53 216.744 141.814 215.447C141.074 214.107 140.758 212.533 140.865 210.879C139.461 210.057 138.199 208.993 137.223 207.746C136.365 206.648 135.73 205.408 135.416 204.065C135.33 204.197 135.258 204.331 135.199 204.466C135.101 204.693 135.04 204.923 135.016 205.148C134.967 205.595 134.984 206.018 135.118 206.466C135.254 206.918 135.512 207.401 135.944 207.966C136.47 208.654 137.047 209.437 137.563 210.28C138.081 211.128 138.537 212.037 138.816 212.972C139.14 214.06 139.187 215.123 138.882 216.145C138.579 217.163 137.926 218.135 136.849 219.038C136.195 219.587 135.618 219.776 135.214 219.717C135.023 219.689 134.868 219.608 134.756 219.482C134.645 219.358 134.579 219.194 134.568 218.999C134.539 218.563 134.788 217.959 135.413 217.319C136.041 216.677 136.234 215.96 136.142 215.212C136.049 214.466 135.675 213.685 135.162 212.915C134.153 212.894 133.419 213.095 132.903 213.472C132.381 213.854 132.076 214.423 131.933 215.132C131.771 215.93 131.478 216.465 131.175 216.702C131.032 216.814 130.882 216.865 130.735 216.851C130.587 216.838 130.45 216.76 130.335 216.615C130.113 216.332 129.968 215.768 129.998 214.903C130.034 213.883 130.321 212.903 130.804 212.044C131.266 211.221 131.911 210.508 132.689 209.975C132.176 209.384 131.796 208.779 131.53 208.162C131.275 207.574 131.121 206.975 131.051 206.368C129.806 207.132 128.44 208.257 127.628 209.706C126.996 210.831 126.698 212.155 127.054 213.659C127.372 214.404 127.447 214.967 127.353 215.307C127.304 215.482 127.213 215.606 127.086 215.676C126.961 215.745 126.807 215.756 126.634 215.705C126.291 215.604 125.848 215.241 125.391 214.582C125.026 214.057 124.764 213.485 124.592 212.885C124.428 212.313 124.348 211.718 124.339 211.114C123.633 211.403 122.899 211.882 122.408 212.662C122.001 213.31 121.759 214.17 121.837 215.308C121.973 216.248 121.922 216.816 121.771 217.096C121.683 217.26 121.56 217.342 121.417 217.351C121.286 217.359 121.147 217.303 121.01 217.192C120.686 216.929 120.337 216.325 120.148 215.568C119.605 213.396 119.967 211.757 120.724 210.538C121.867 208.696 123.912 207.823 125.089 207.514C125.267 207.097 125.473 206.693 125.702 206.31C125.863 206.04 126.037 205.779 126.222 205.529C126.096 205.569 125.969 205.606 125.843 205.642C125.566 205.719 125.284 205.787 124.996 205.846C124.582 205.931 124.154 205.986 123.721 206.015C123.29 206.044 122.854 206.047 122.416 206.029C121.678 207.489 120.62 208.672 119.318 209.448C118.057 210.2 116.568 210.569 114.917 210.438C114.134 210.374 113.598 210.17 113.335 209.918C113.204 209.791 113.134 209.65 113.13 209.503C113.125 209.356 113.186 209.21 113.314 209.076C113.563 208.816 114.094 208.589 114.925 208.482C115.967 208.348 116.846 207.98 117.555 207.485C118.327 206.946 118.898 206.257 119.262 205.553C118.605 205.387 117.986 205.187 117.43 204.969C116.799 204.722 116.246 204.45 115.81 204.176C114.841 203.567 114.276 203.027 114.082 202.626C113.983 202.422 113.972 202.243 114.045 202.098C114.118 201.953 114.268 201.854 114.492 201.807C114.944 201.713 115.75 201.831 116.868 202.237C117.728 202.548 118.65 202.696 119.582 202.719C120.533 202.743 121.495 202.636 122.41 202.44C122.353 202.392 122.297 202.343 122.24 202.293C122.113 202.179 121.987 202.055 121.862 201.923C121.659 201.708 121.47 201.501 121.281 201.293C119.731 199.591 118.154 197.861 114.85 198.335C114.332 198.41 113.888 198.362 113.633 198.225C113.501 198.154 113.411 198.057 113.377 197.938C113.342 197.818 113.365 197.685 113.459 197.545C113.626 197.291 114.054 196.988 114.834 196.67C115.387 196.444 115.977 196.297 116.588 196.225C117.149 196.159 117.728 196.157 118.314 196.216C118.075 195.088 118.236 194.232 118.556 193.773C118.681 193.595 118.831 193.473 118.994 193.413C119.164 193.35 119.345 193.355 119.524 193.435C119.875 193.593 120.216 194.055 120.419 194.878C120.799 196.423 121.834 197.755 123.072 198.684C124.429 199.702 126.025 200.235 127.266 200.031C127.386 200.011 127.507 199.985 127.628 199.953C127.694 199.936 127.759 199.917 127.825 199.896C127.027 199.471 126.406 198.879 125.932 198.267C125.031 197.103 124.655 195.858 124.595 195.55C124.49 195.009 124.522 194.517 124.666 194.207C124.741 194.05 124.845 193.933 124.978 193.874C125.115 193.813 125.274 193.813 125.451 193.89C125.745 194.018 126.106 194.375 126.513 195.046C126.622 195.224 126.81 195.48 127.063 195.758C127.515 196.256 128.17 196.82 128.926 197.127C129.668 197.427 130.513 197.477 131.361 196.962C131.537 196.855 131.715 196.723 131.894 196.562C132.045 196.296 132.182 196 132.313 195.667C132.449 195.321 132.578 194.941 132.712 194.518C133.768 191.165 134.834 187.446 135.93 183.625L136.473 181.732C136.206 181.076 135.943 180.425 135.681 179.774C135.461 179.227 135.239 178.676 134.887 177.811C134.675 177.288 134.628 176.716 134.762 176.232C134.889 175.775 135.176 175.395 135.638 175.201C136.135 174.992 136.588 175.076 136.985 175.319C137.402 175.574 137.753 176.005 138.031 176.446L141.587 164.095C140.784 163.009 140.172 161.894 139.724 160.758C139.289 159.652 139.007 158.525 138.856 157.382L134.366 158.57L137.777 145.839L124.864 142.383L128.472 138.775L126.528 136.828L119.438 143.854L134.311 147.839L130.232 163.063C130.322 162.94 130.432 162.83 130.559 162.741C130.687 162.652 130.833 162.581 130.991 162.538L136.74 160.993C136.86 161.407 136.999 161.819 137.16 162.227C137.345 162.695 137.557 163.159 137.799 163.62L132.574 165.011L129.165 177.814C129.184 177.791 129.203 177.77 129.223 177.751C129.496 177.476 129.855 177.338 130.214 177.337C130.573 177.335 130.934 177.471 131.209 177.744C131.271 177.806 131.333 177.869 131.393 177.933C132.242 178.793 133.076 179.639 133.902 180.477L133.019 183.55C132.113 182.633 131.187 181.699 130.224 180.73L127.494 183.459C127.322 183.663 127.096 183.814 126.845 183.895C126.599 183.974 126.327 183.986 126.057 183.914C125.816 183.85 125.593 183.72 125.417 183.544C125.219 183.346 125.093 183.103 125.038 182.849C124.982 182.588 125 182.315 125.092 182.063L128.12 170.795L104.051 164.349C103.18 164.117 102.426 163.664 101.828 163.056C101.216 162.434 100.768 161.647 100.525 160.766L94.4975 138.481C94.0496 136.809 94.0525 135.093 94.4809 133.494C94.904 131.915 95.7425 130.449 96.9717 129.249C100.962 125.354 104.332 122.054 108.286 118.123L105.557 115.393C105.353 115.221 105.202 114.995 105.121 114.744C105.043 114.498 105.031 114.226 105.102 113.956C105.167 113.715 105.296 113.492 105.473 113.316C105.671 113.119 105.913 112.992 106.168 112.937C106.428 112.881 106.701 112.899 106.953 112.992L118.235 116.023L124.684 91.9413C124.916 91.0709 125.369 90.3167 125.977 89.7194C126.6 89.1067 127.386 88.6585 128.267 88.4158L150.552 82.3886C152.225 81.9404 153.94 81.943 155.539 82.3714C157.118 82.7947 158.584 83.6334 159.784 84.8626C163.679 88.8525 166.979 92.2231 170.91 96.1771L173.64 93.4481C173.812 93.2434 174.038 93.093 174.289 93.0123C174.536 92.9332 174.807 92.9219 175.077 92.9931C175.584 93.1285 175.984 93.5405 176.096 94.0585C176.152 94.319 176.134 94.592 176.042 94.8437L173.011 106.122L173.093 106.143L197.068 112.564ZM172.585 138.076L174.591 140.085L181.68 133.059L166.807 129.074L170.88 113.873C170.794 113.984 170.692 114.084 170.575 114.166C170.447 114.255 170.301 114.325 170.143 114.369L152.841 119.018L155.137 121.32L166.796 118.193L163.344 131.078L176.15 134.51L172.585 138.076ZM150.226 116.395L152.206 114.418L145.179 107.329L141.194 122.202L125.925 118.111L125.938 118.12C126.068 118.212 126.182 118.327 126.275 118.458C126.364 118.586 126.434 118.732 126.479 118.89L131.112 136.136L133.445 133.804L130.346 122.236L143.18 125.675L146.633 112.791L150.226 116.395ZM143.876 156.051L142.078 156.515C142.113 156.955 142.232 157.44 142.387 157.903C142.561 158.424 142.78 158.915 142.974 159.284L143.876 156.051ZM148.081 118.258L145.17 129.121L134.33 126.217L136.58 134.645L130.305 140.928L141.223 143.85L138.339 154.616L146.824 152.342L153.062 158.58L155.951 147.796L166.852 150.717L164.558 142.144L170.729 135.97L159.898 133.068L162.809 122.204L154.295 124.461L148.081 118.258ZM170.775 184.52C171.011 184.756 171.268 184.958 171.532 185.109C171.779 185.251 172.032 185.349 172.281 185.388C172.65 185.447 172.946 185.362 173.176 185.184C173.446 184.975 173.63 184.633 173.736 184.238C175.646 177.105 177.557 169.971 179.468 162.838L161.931 158.139L158.245 171.887L170.775 184.52ZM125.543 133.852C125.817 133.579 126.178 133.443 126.537 133.445C126.897 133.447 127.256 133.585 127.528 133.859C127.548 133.878 127.568 133.9 127.587 133.922L124.005 120.473L111.202 117.064C111.225 117.083 111.246 117.102 111.265 117.122C111.54 117.395 111.678 117.754 111.68 118.113C111.681 118.472 111.545 118.833 111.272 119.108C111.21 119.171 111.147 119.232 111.083 119.292C106.85 123.469 102.95 127.301 98.7048 131.479C98.2538 131.924 98.1467 132.139 97.86 132.622C97.5484 133.148 97.3267 133.688 97.1793 134.226C97.0216 134.801 96.9505 135.383 96.954 135.962C96.9576 136.571 97.0445 137.176 97.2012 137.762L102.33 156.883L125.543 133.852ZM104.496 158.674C104.26 158.91 104.058 159.167 103.907 159.431C103.765 159.678 103.668 159.932 103.628 160.181C103.569 160.549 103.654 160.846 103.832 161.075C104.041 161.345 104.383 161.53 104.778 161.636C111.911 163.546 119.045 165.456 126.178 167.367L130.877 149.83L117.129 146.144L104.496 158.674ZM155.181 113.433C155.454 113.708 155.59 114.069 155.588 114.428C155.587 114.787 155.448 115.147 155.174 115.42C155.154 115.439 155.133 115.458 155.111 115.477L168.56 111.896L171.969 99.0931C171.95 99.1155 171.931 99.1367 171.911 99.1562C171.638 99.4305 171.279 99.5686 170.92 99.5703C170.561 99.5718 170.2 99.4362 169.925 99.1632C169.862 99.1007 169.801 99.0376 169.741 98.9743C165.563 94.7404 161.732 90.8404 157.554 86.5956C157.11 86.1449 156.894 86.0376 156.411 85.7509C155.886 85.4391 155.345 85.2177 154.807 85.0699C154.232 84.9124 153.649 84.8414 153.071 84.8448C152.462 84.8484 151.857 84.9353 151.272 85.0919L132.15 90.2217L155.181 113.433ZM130.359 92.3872C130.123 92.151 129.866 91.9488 129.602 91.7975C129.355 91.6556 129.101 91.5583 128.852 91.5189C128.484 91.4603 128.187 91.5452 127.958 91.7231C127.688 91.9322 127.504 92.2739 127.398 92.6685C125.487 99.802 123.577 106.936 121.667 114.069L139.203 118.768L142.889 105.02L130.359 92.3872ZM175.576 143.061C175.301 143.334 174.941 143.47 174.581 143.468C174.222 143.467 173.863 143.328 173.59 143.054C173.57 143.034 173.55 143.013 173.532 142.991L177.113 156.439L189.916 159.849C189.894 159.83 189.873 159.811 189.853 159.791C189.579 159.518 189.44 159.159 189.439 158.8C189.437 158.441 189.573 158.08 189.846 157.805C189.909 157.742 189.972 157.681 190.035 157.621C194.268 153.443 198.169 149.612 202.413 145.433C202.864 144.989 202.972 144.775 203.259 144.291C203.57 143.765 203.792 143.225 203.939 142.686C204.097 142.113 204.168 141.53 204.165 140.951C204.161 140.342 204.074 139.737 203.917 139.152L198.788 120.03L175.576 143.061ZM196.622 118.239C196.858 118.003 197.06 117.746 197.211 117.482C197.353 117.235 197.451 116.981 197.49 116.733C197.549 116.364 197.464 116.067 197.286 115.838C197.077 115.568 196.735 115.384 196.341 115.278C189.207 113.367 182.074 111.457 174.94 109.547L170.241 127.084L183.989 130.769L196.622 118.239Z" fill="#006748"/>
</g>
<defs>
<filter id="filter0_d_97_49" x="0.449219" y="0.949707" width="300.05" height="300.05" filterUnits="userSpaceOnUse" color-interpolation-filters="sRGB">
<feFlood flood-opacity="0" result="BackgroundImageFix"/>
<feColorMatrix in="SourceAlpha" type="matrix" values="0 0 0 0 0 0 0 0 0 0 0 0 0 0 0 0 0 0 127 0" result="hardAlpha"/>
<feOffset dy="12.5"/>
<feGaussianBlur stdDeviation="25"/>
<feComposite in2="hardAlpha" operator="out"/>
<feColorMatrix type="matrix" values="0 0 0 0 0.0215403 0 0 0 0 0.250145 0 0 0 0 0.172372 0 0 0 0.08 0"/>
<feBlend mode="normal" in2="BackgroundImageFix" result="effect1_dropShadow_97_49"/>
<feBlend mode="normal" in="SourceGraphic" in2="effect1_dropShadow_97_49" result="shape"/>
</filter>
<clipPath id="clip0_97_49">
<rect width="158.73" height="163.139" fill="white" transform="translate(94.3545 41.2725) rotate(15)"/>
</clipPath>
</defs>
</svg>
