<svg width="34" height="34" viewBox="0 0 34 34" fill="none" xmlns="http://www.w3.org/2000/svg">
<path fill-rule="evenodd" clip-rule="evenodd" d="M11.3383 3.33167C12.0416 2.52038 12.9112 1.86993 13.8881 1.42447C14.865 0.979011 15.9263 0.748983 17 0.750003C19.2617 0.750003 21.2883 1.75 22.6617 3.33167C23.7328 3.25519 24.8079 3.41014 25.8139 3.78601C26.8198 4.16188 27.7331 4.74986 28.4917 5.51C29.2515 6.26844 29.8393 7.18146 30.2152 8.1871C30.591 9.19273 30.7461 10.2675 30.67 11.3383C31.481 12.0418 32.1311 12.9114 32.5763 13.8883C33.0215 14.8652 33.2512 15.9265 33.25 17C33.251 18.0737 33.021 19.135 32.5755 20.1119C32.1301 21.0888 31.4796 21.9584 30.6683 22.6617C30.7445 23.7325 30.5893 24.8073 30.2135 25.8129C29.8376 26.8186 29.2498 27.7316 28.49 28.49C27.7316 29.2498 26.8186 29.8376 25.8129 30.2135C24.8073 30.5893 23.7325 30.7445 22.6617 30.6683C21.9584 31.4796 21.0888 32.1301 20.1119 32.5755C19.135 33.021 18.0737 33.251 17 33.25C15.9263 33.251 14.865 33.021 13.8881 32.5755C12.9112 32.1301 12.0416 31.4796 11.3383 30.6683C10.2673 30.745 9.1923 30.5903 8.18635 30.2148C7.18039 29.8392 6.26705 29.2515 5.50834 28.4917C4.74828 27.733 4.16037 26.8198 3.7845 25.8138C3.40864 24.8079 3.25363 23.7328 3.33001 22.6617C2.51902 21.9583 1.86888 21.0886 1.42371 20.1117C0.978546 19.1348 0.748777 18.0735 0.750005 17C0.750005 14.7383 1.75001 12.7117 3.33167 11.3383C3.25543 10.2674 3.41051 9.19269 3.78637 8.18704C4.16223 7.18138 4.75008 6.26838 5.51 5.51C6.26838 4.75008 7.18139 4.16223 8.18704 3.78637C9.19269 3.41051 10.2674 3.25543 11.3383 3.33167ZM23.0167 13.9767C23.1167 13.8434 23.189 13.6915 23.2295 13.5299C23.2699 13.3683 23.2777 13.2002 23.2523 13.0356C23.2268 12.8709 23.1688 12.713 23.0814 12.5712C22.9941 12.4293 22.8793 12.3063 22.7438 12.2094C22.6082 12.1125 22.4547 12.0437 22.2922 12.0071C22.1297 11.9704 21.9615 11.9665 21.7975 11.9958C21.6335 12.025 21.4769 12.0868 21.3371 12.1774C21.1973 12.268 21.077 12.3856 20.9833 12.5233L15.59 20.0733L12.8833 17.3667C12.6464 17.1459 12.333 17.0257 12.0091 17.0314C11.6853 17.0371 11.3763 17.1683 11.1473 17.3973C10.9183 17.6263 10.7871 17.9353 10.7814 18.2591C10.7757 18.583 10.8959 18.8964 11.1167 19.1333L14.8667 22.8833C14.995 23.0116 15.1497 23.1103 15.32 23.1727C15.4903 23.2352 15.6722 23.2598 15.8529 23.2449C16.0337 23.23 16.2091 23.1759 16.3669 23.0864C16.5247 22.9969 16.6611 22.8742 16.7667 22.7267L23.0167 13.9767Z" fill="#78C887"></path>
</svg>
