<svg width="14" height="14" viewBox="0 0 14 14" fill="none" xmlns="http://www.w3.org/2000/svg">
<path fill-rule="evenodd" clip-rule="evenodd" d="M7 0.5C3.41 0.5 0.5 3.41 0.5 7C0.5 10.59 3.41 13.5 7 13.5C10.59 13.5 13.5 10.59 13.5 7C13.5 3.41 10.59 0.5 7 0.5ZM5.85333 5.14667C5.80756 5.09754 5.75236 5.05814 5.69103 5.03081C5.62969 5.00348 5.56348 4.98879 5.49635 4.98761C5.42921 4.98642 5.36253 4.99877 5.30027 5.02392C5.23801 5.04907 5.18145 5.0865 5.13398 5.13398C5.0865 5.18145 5.04907 5.23801 5.02392 5.30027C4.99877 5.36253 4.98642 5.42921 4.98761 5.49635C4.98879 5.56348 5.00348 5.62969 5.03081 5.69103C5.05814 5.75236 5.09754 5.80756 5.14667 5.85333L6.29333 7L5.14667 8.14667C5.09754 8.19244 5.05814 8.24764 5.03081 8.30897C5.00348 8.37031 4.98879 8.43652 4.98761 8.50365C4.98642 8.57079 4.99877 8.63747 5.02392 8.69973C5.04907 8.76199 5.0865 8.81855 5.13398 8.86603C5.18145 8.9135 5.23801 8.95093 5.30027 8.97608C5.36253 9.00123 5.42921 9.01358 5.49635 9.01239C5.56348 9.01121 5.62969 8.99652 5.69103 8.96919C5.75236 8.94186 5.80756 8.90246 5.85333 8.85333L7 7.70667L8.14667 8.85333C8.19244 8.90246 8.24764 8.94186 8.30897 8.96919C8.37031 8.99652 8.43652 9.01121 8.50365 9.01239C8.57079 9.01358 8.63747 9.00123 8.69973 8.97608C8.76199 8.95093 8.81855 8.9135 8.86603 8.86603C8.9135 8.81855 8.95093 8.76199 8.97608 8.69973C9.00123 8.63747 9.01358 8.57079 9.01239 8.50365C9.01121 8.43652 8.99652 8.37031 8.96919 8.30897C8.94186 8.24764 8.90246 8.19244 8.85333 8.14667L7.70667 7L8.85333 5.85333C8.90246 5.80756 8.94186 5.75236 8.96919 5.69103C8.99652 5.62969 9.01121 5.56348 9.01239 5.49635C9.01358 5.42921 9.00123 5.36253 8.97608 5.30027C8.95093 5.23801 8.9135 5.18145 8.86603 5.13398C8.81855 5.0865 8.76199 5.04907 8.69973 5.02392C8.63747 4.99877 8.57079 4.98642 8.50365 4.98761C8.43652 4.98879 8.37031 5.00348 8.30897 5.03081C8.24764 5.05814 8.19244 5.09754 8.14667 5.14667L7 6.29333L5.85333 5.14667Z" fill="#E31345"/>
</svg>
